<svg xmlns="http://www.w3.org/2000/svg" viewBox="0 0 24 24" width="24" height="24" fill="none">
  <!-- Left Hemisphere -->
  <path d="M12 5C9.8 5 8 6.8 8 9C8 9.6 8.1 10.1 8.3 10.6C7.5 11 7 11.9 7 13C7 14.1 7.6 15 8.5 15.5C8.2 16 8 16.6 8 17.2C8 18.8 9.3 20 11 20C11.6 20 12 19.6 12 19V5Z" stroke="#00f2fe" stroke-width="2" stroke-linejoin="round"/>
  <!-- Right Hemisphere -->
  <path d="M12 5C14.2 5 16 6.8 16 9C16 9.6 15.9 10.1 15.7 10.6C16.5 11 17 11.9 17 13C17 14.1 16.4 15 15.5 15.5C15.8 16 16 16.6 16 17.2C16 18.8 14.7 20 13 20C12.4 20 12 19.6 12 19V5Z" stroke="#00f2fe" stroke-width="2" stroke-linejoin="round"/>
  <!-- Neural Connections / Nodes -->
  <circle cx="12" cy="8" r="1.5" fill="#8b5cf6"/>
  <circle cx="10" cy="12" r="1.5" fill="#8b5cf6"/>
  <circle cx="14" cy="12" r="1.5" fill="#8b5cf6"/>
  <circle cx="11" cy="16" r="1.5" fill="#8b5cf6"/>
  <circle cx="13" cy="16" r="1.5" fill="#8b5cf6"/>
</svg>
